Coordinates
version=1
nRows=14
nColumns=24
inDegrees=yes

Units are S.I. units (second, meters, Newtons, ...)
Angles are in degrees.

endheader
time	pelvis_tilt	pelvis_list	pelvis_rotation	pelvis_tx	pelvis_ty	pelvis_tz	hip_flexion_r	hip_adduction_r	hip_rotation_r	knee_angle_r	ankle_angle_r	subtalar_angle_r	mtp_angle_r	hip_flexion_l	hip_adduction_l	hip_rotation_l	knee_angle_l	ankle_angle_l	subtalar_angle_l	mtp_angle_l	lumbar_extension	lumbar_bending	lumbar_rotation
      0.92516667	     -4.14438595	      1.60445325	     -4.10656922	     -0.12844219	      0.89332672	      0.33536254	    -11.71718316	      1.47418726	     -2.94772839	    -10.10908090	     18.05399340	     12.02706129	     12.08261605	     30.58300170	      0.88208312	     -6.91691701	    -15.36129146	      4.06664463	     -4.54455059	     -1.00538276	     -3.76360221	     -1.40583258	      9.17524002
      0.92933333	     -4.21916001	      1.63869262	     -4.22379907	     -0.12265895	      0.89202653	      0.33520857	    -11.71781919	      1.34025382	     -2.86394391	    -10.77756401	     18.25585034	     12.19412249	     12.21613736	     30.61913564	      0.91946244	     -6.70167698	    -15.31346822	      4.16533911	     -4.57114079	     -1.01281137	     -3.63272618	     -1.49386654	      9.24583301
      0.93350000	     -4.28878736	      1.68187821	     -4.33254343	     -0.11686192	      0.89075778	      0.33505557	    -11.71165120	      1.20231716	     -2.74425883	    -11.47129509	     18.43413447	     12.29675915	     12.33678949	     30.65635748	      0.96883844	     -6.50465126	    -15.37949498	      4.25710063	     -4.61221836	     -1.01427010	     -3.51897193	     -1.61608293	      9.28607800
      0.93766667	     -4.38364057	      1.73088365	     -4.44287623	     -0.11105788	      0.88948939	      0.33485342	    -11.61596145	      1.04251120	     -2.71872757	    -12.29061625	     18.57265564	     12.53324669	     12.55872729	     30.70814201	      1.02969976	     -6.30277404	    -15.50524259	      4.27966986	     -4.69900725	     -1.01303821	     -3.35074553	     -1.69775699	      9.35538876
      0.94183333	     -4.45204204	      1.79496064	     -4.54390441	     -0.10522838	      0.88829106	      0.33466921	    -11.55382461	      0.87789464	     -2.60448895	    -13.10102696	     18.70727026	     12.62143074	     12.72677618	     30.74246910	      1.10815162	     -6.14722436	    -15.74352931	      4.31290004	     -4.78800565	     -1.00594741	     -3.23082231	     -1.84927564	      9.35947365
      0.94600000	     -4.54459669	      1.86109366	     -4.63616949	     -0.09941178	      0.88709222	      0.33443797	    -11.41087479	      0.70361755	     -2.55503453	    -14.01680959	     18.78776672	     12.78819548	     12.93618543	     30.80263067	      1.19678614	     -5.99473242	    -16.05079258	      4.28884406	     -4.91356534	     -0.99241262	     -3.07508484	     -1.97625268	      9.36576046
      0.95016667	     -4.62808146	      1.93842838	     -4.72177182	     -0.09357050	      0.88594575	      0.33417948	    -11.25120251	      0.51334109	     -2.51987731	    -14.98616895	     18.83524307	     12.96182891	     13.18220020	     30.84913182	      1.30442309	     -5.86322252	    -16.41771559	      4.22447144	     -5.07106323	     -0.97234028	     -2.92493561	     -2.12268602	      9.35667730
      0.95433333	     -4.68395160	      2.02324262	     -4.77245644	     -0.08770102	      0.88489068	      0.33382917	    -11.09875622	      0.30661811	     -2.57380441	    -15.98831961	     18.70817013	     13.13421008	     17.54626344	     30.85218621	      1.45476464	     -5.67593189	    -16.80696383	      4.08018025	     -5.37878070	     -0.52778266	     -2.80959740	     -2.26305170	      9.32371803
      0.95850000	     -4.76226494	      2.10855602	     -4.84737137	     -0.08185428	      0.88384420	      0.33356026	    -10.88331184	      0.10834428	     -2.51167073	    -17.06979243	     18.65637085	     13.25242209	     17.59974581	     30.90606284	      1.56783341	     -5.64360390	    -17.31203195	      3.98979830	     -5.47449827	     -0.51565073	     -2.66357015	     -2.43127454	      9.27430885
      0.96266667	     -4.84225839	      2.20263877	     -4.89954458	     -0.07600159	      0.88283789	      0.33321447	    -10.62748282	     -0.10543505	     -2.50892719	    -18.22309737	     18.55150634	     13.41653058	     17.69864171	     30.96003409	      1.71293973	     -5.57953939	    -17.85221536	      3.86493466	     -5.67009149	     -0.49627245	     -2.52128268	     -2.59834686	      9.20921526
      0.96683333	     -4.91755525	      2.30329768	     -4.93890494	     -0.07015405	      0.88189024	      0.33284219	    -10.33942702	     -0.32938236	     -2.52135836	    -19.44286711	     18.38921527	     13.58136994	     17.83879529	     31.00804607	      1.87292909	     -5.52641041	    -18.42117647	      3.72130149	     -5.89961670	     -0.47088452	     -2.37997943	     -2.77923664	      9.12229180
      0.97100000	     -4.98690795	      2.41047135	     -4.96473916	     -0.06431340	      0.88100378	      0.33242571	    -10.01886285	     -0.56601027	     -2.55849501	    -20.72886239	     18.17085452	     13.76407819	     18.02769248	     31.04982348	      2.05020690	     -5.47570089	    -19.01629045	      3.56946693	     -6.14928719	     -0.43757996	     -2.25136087	     -2.96210242	      9.01902196
      0.97516667	     -5.04953176	      2.51150368	     -4.95903047	     -0.05851168	      0.88017276	      0.33191966	     -9.65489341	     -0.80703484	     -2.67221772	    -22.10881093	     17.94062984	     14.01362299	     18.39770671	     31.08686492	      2.24533465	     -5.38551863	    -19.62663730	      3.38106439	     -6.44872698	     -0.37460822	     -2.13937805	     -3.09864922	      8.90327244
      0.97933333	     -5.11464321	      2.63131405	     -4.96169382	     -0.05269796	      0.87940449	      0.33144748	     -9.25811925	     -1.06567778	     -2.73281835	    -23.52676186	     17.59657808	     14.17856531	     18.82771836	     31.12833628	      2.44622043	     -5.36195420	    -20.26690029	      3.24729707	     -6.71373972	     -0.30372645	     -2.01649231	     -3.29738431	      8.75767881
